<?xml version="1.0" encoding="UTF-8"?>
<svg version="1.1" xmlns="http://www.w3.org/2000/svg" width="1536" height="1024">
<path d="M0 0 C506.88 0 1013.76 0 1536 0 C1536 337.92 1536 675.84 1536 1024 C1029.12 1024 522.24 1024 0 1024 C0 686.08 0 348.16 0 0 Z " fill="#040404" transform="translate(0,0)"/>
<path d="M0 0 C36.63 0 73.26 0 111 0 C111 37.29 111 74.58 111 113 C194.16 113 277.32 113 363 113 C363 75.71 363 38.42 363 0 C398.31 0 433.62 0 470 0 C470 149.16 470 298.32 470 452 C434.69 452 399.38 452 363 452 C363 377.75 363 303.5 363 227 C279.84 227 196.68 227 111 227 C111 301.25 111 375.5 111 452 C74.37 452 37.74 452 0 452 C0 302.84 0 153.68 0 0 Z " fill="#FEFEFE" transform="translate(240,352)"/>
<path d="M0 0 C40.26 0 80.52 0 122 0 C122 74.91 122 149.82 122 227 C161.93 227 201.86 227 243 227 C243 189.71 243 152.42 243 114 C269.4 114 295.8 114 323 114 C323 151.62 323 189.24 323 228 C296.6 228 270.2 228 243 228 C243 265.29 243 302.58 243 341 C203.07 341 163.14 341 122 341 C122 415.25 122 489.5 122 566 C81.74 566 41.48 566 0 566 C0 379.22 0 192.44 0 0 Z " fill="#FEFEFE" transform="translate(826,238)"/>
<path d="M0 0 C83.16 0 166.32 0 252 0 C252 37.29 252 74.58 252 113 C287.64 113 323.28 113 360 113 C360 262.49 360 411.98 360 566 C359.67 566 359.34 566 359 566 C359 416.84 359 267.68 359 114 C323.69 114 288.38 114 252 114 C252 151.29 252 188.58 252 227 C168.84 227 85.68 227 0 227 C0 189.71 0 152.42 0 114 C-36.63 114 -73.26 114 -111 114 C-111 113.67 -111 113.34 -111 113 C-74.37 113 -37.74 113 0 113 C0 75.71 0 38.42 0 0 Z " fill="#FBFBFB" transform="translate(351,238)"/>
<path d="M0 0 C83.16 0 166.32 0 252 0 C252 37.29 252 74.58 252 113 C168.84 113 85.68 113 0 113 C0 75.71 0 38.42 0 0 Z " fill="#040404" transform="translate(351,352)"/>
<path d="M0 0 C36.3 0 72.6 0 110 0 C110 37.29 110 74.58 110 113 C73.7 113 37.4 113 0 113 C0 75.71 0 38.42 0 0 Z " fill="#FEFEFE" transform="translate(1149,238)"/>
<path d="M0 0 C36.3 0 72.6 0 110 0 C110 36.96 110 73.92 110 112 C73.7 112 37.4 112 0 112 C0 75.04 0 38.08 0 0 Z " fill="#FEFEFE" transform="translate(1149,692)"/>
<path d="M0 0 C26.4 0 52.8 0 80 0 C80 37.29 80 74.58 80 113 C53.6 113 27.2 113 0 113 C0 75.71 0 38.42 0 0 Z " fill="#FEFEFE" transform="translate(1069,579)"/>
</svg>
